<?xml version="1.0" encoding="utf-8"?>
<!-- Generator: Adobe Illustrator 17.1.0, SVG Export Plug-In . SVG Version: 6.00 Build 0)  -->
<!DOCTYPE svg PUBLIC "-//W3C//DTD SVG 1.1//EN" "http://www.w3.org/Graphics/SVG/1.1/DTD/svg11.dtd" [
	<!ENTITY ns_flows "http://ns.adobe.com/Flows/1.0/">
	<!ENTITY ns_extend "http://ns.adobe.com/Extensibility/1.0/">
	<!ENTITY ns_ai "http://ns.adobe.com/AdobeIllustrator/10.0/">
	<!ENTITY ns_graphs "http://ns.adobe.com/Graphs/1.0/">
]>
<svg version="1.1" id="Layer_1" xmlns:x="&ns_extend;" xmlns:i="&ns_ai;" xmlns:graph="&ns_graphs;"
	 xmlns="http://www.w3.org/2000/svg" xmlns:xlink="http://www.w3.org/1999/xlink" xmlns:a="http://ns.adobe.com/AdobeSVGViewerExtensions/3.0/"
	 x="0px" y="0px" viewBox="0 0 127.5 128" enable-background="new 0 0 127.5 128" xml:space="preserve">
<g>
	<g>
		<path fill="#F05A29" d="M64,126.5C29.537,126.5,1.5,98.463,1.5,64C1.5,29.538,29.537,1.5,64,1.5s62.5,28.038,62.5,62.5
			C126.5,98.463,98.463,126.5,64,126.5z M64,4.5C31.191,4.5,4.5,31.191,4.5,64s26.691,59.5,59.5,59.5s59.5-26.691,59.5-59.5
			S96.809,4.5,64,4.5z"/>
	</g>
	<g>
		<path fill="#F05A29" d="M54.604,85.624c-0.001,0-0.002,0-0.003,0c-0.403-0.001-0.789-0.164-1.07-0.452L32.474,63.764
			c-0.579-0.593-0.567-1.542,0.025-2.122c0.592-0.578,1.543-0.567,2.121,0.025l19.989,20.314l38.776-39.157
			c0.58-0.59,1.531-0.597,2.121-0.016c0.59,0.582,0.598,1.531,0.016,2.122L55.673,85.176C55.391,85.462,55.006,85.624,54.604,85.624
			z"/>
	</g>
</g>
</svg>
